PathFileType	4	(X/Y/Z)	c:/Users/goper/Files/vsCode/490R/osim_files/C05/C05_Slow_06.trc
DataRate	CameraRate	NumFrames	NumMarkers	Units                	OrigDataRate	OrigDataStartFrame	OrigNumFrames
250.00	250.00	4	36	mm	250.0	1330	2658
                Frame#	Time	LPSIS			LASIS			LTH1			LTH2			LTH3			LTH4			LLFE			LMFE			LSH1			LSH2			LSH3			LSH4			LLMAL			LMMAL			LCAL			LMTP5			LTOE			LMTP1			RPSIS			RASIS			RTH1			RTH2			RTH3			RTH4			RLFE			RMFE			RSH1			RSH2			RSH3			RSH4			RLMAL			RMMAL			RCAL			RMTP1			RTOE			RMTP5		
		X1	Y1	Z1	X2	Y2	Z2	X3	Y3	Z3	X4	Y4	Z4	X5	Y5	Z5	X6	Y6	Z6	X7	Y7	Z7	X8	Y8	Z8	X9	Y9	Z9	X10	Y10	Z10	X11	Y11	Z11	X12	Y12	Z12	X13	Y13	Z13	X14	Y14	Z14	X15	Y15	Z15	X16	Y16	Z16	X17	Y17	Z17	X18	Y18	Z18	X19	Y19	Z19	X20	Y20	Z20	X21	Y21	Z21	X22	Y22	Z22	X23	Y23	Z23	X24	Y24	Z24	X25	Y25	Z25	X26	Y26	Z26	X27	Y27	Z27	X28	Y28	Z28	X29	Y29	Z29	X30	Y30	Z30	X31	Y31	Z31	X32	Y32	Z32	X33	Y33	Z33	X34	Y34	Z34	X35	Y35	Z35	X36	Y36	Z36

1330	5.31600	-190.77328	1023.80676	293.44537	-382.56641	977.12262	368.62347	-200.08664	683.61469	397.95001	-196.35095	621.67352	386.66321	-275.12735	673.12341	394.48636	-261.67764	613.38293	383.25180	0.00000	0.00000	0.00000	-202.73424	506.56857	251.91200	-36.71048	399.83685	374.16449	-18.43236	359.44275	368.72626	-88.91004	364.85199	385.83829	-64.32355	331.99820	377.66373	77.45556	146.78508	344.29895	45.46199	149.01360	260.97589	142.87718	143.12900	289.04944	-19.45223	33.77963	373.50076	-64.01070	50.55615	312.91400	-50.59237	43.98555	265.17340	-201.46996	1029.05640	185.36421	-396.22589	993.90649	137.54016	-398.55774	653.93304	80.31796	-429.83469	601.63678	96.97636	-466.16010	687.16431	89.24895	-488.13040	630.92200	102.73988	0.00000	0.00000	0.00000	-502.56113	539.64313	122.22972	-460.18253	368.67444	96.52809	-474.60458	323.15210	101.85841	-519.74445	379.46783	105.78554	-525.45551	333.03281	110.98560	-535.80127	97.57574	143.73761	-556.70026	112.71979	229.46237	-478.14551	68.08445	193.88416	-693.05444	57.88342	220.73436	-710.39490	86.24220	172.48271	-666.10193	45.20091	112.08578
1331	5.32000	-195.76973	1024.11328	293.08136	-387.70383	977.36255	367.85031	-205.69838	683.29468	397.03384	-202.08331	621.36017	385.86615	-280.95490	672.67017	393.82770	-267.47372	613.20880	382.76129	0.00000	0.00000	0.00000	-209.21725	505.99527	251.48543	-41.86599	401.17001	373.92877	-23.00376	361.18607	368.68918	-92.98479	365.17972	385.41858	-68.82582	333.15643	377.64661	74.97552	149.03922	344.88541	42.80139	150.85765	261.53448	140.20741	146.69934	289.41702	-19.79963	33.93385	373.60507	-63.76514	50.64993	312.45233	-51.27311	43.96820	264.84726	-206.23224	1029.67554	185.04851	-400.89774	994.56097	136.86601	-404.40793	655.04889	79.63835	-435.49274	602.87524	96.59526	-472.15836	688.52435	88.94623	-493.68417	632.26044	102.99145	0.00000	0.00000	0.00000	-507.24048	540.31134	122.27847	-463.77087	369.29947	95.51582	-478.07773	323.37701	100.50506	-523.62451	379.76096	105.18694	-528.63953	333.17026	110.68137	-536.36505	97.49236	143.56322	-557.29962	112.60759	229.26544	-478.45929	68.28076	193.77263	-693.48785	56.72842	220.84630	-711.05859	84.77846	172.68811	-666.53754	44.18060	112.13151
1332	5.32400	-200.65077	1024.47192	292.76889	-392.74323	977.56036	367.13748	-211.37665	682.98322	396.21271	-207.95457	620.99158	385.12079	-286.77048	672.44446	393.26401	-273.31854	613.02222	382.25470	0.00000	0.00000	0.00000	-215.83615	505.48346	251.13550	-47.17776	402.43811	374.00244	-28.14872	362.62936	368.47165	-99.95311	367.73370	386.35715	-73.24831	334.36542	377.79361	72.23087	151.44362	345.46027	40.04222	152.74672	262.12589	137.44240	150.40207	289.81348	-20.19897	34.14003	373.75446	-63.99051	50.71627	312.51202	-52.08825	44.22662	264.92868	-210.92854	1030.30188	184.68799	-405.73627	995.40393	136.14523	-410.01370	656.26508	78.97427	-440.97421	604.01697	96.16211	-477.76944	689.83099	89.12373	-499.08298	633.51892	103.33414	0.00000	0.00000	0.00000	-511.62576	540.86890	122.25131	-467.34335	369.92276	94.50169	-481.29123	323.90094	99.61924	-527.49921	379.70319	105.55585	-531.70789	333.22949	110.29314	-537.17273	97.70033	143.26588	-557.97321	112.47846	229.06984	-478.73950	68.48045	193.65894	-693.87805	55.41998	221.03058	-711.85895	83.41680	172.89020	-666.95490	43.25558	112.19627
1333	5.32800	-205.56508	1024.81799	292.39645	-397.56897	977.70459	366.19467	-217.07048	682.64325	395.45761	-214.01724	620.62646	384.41000	-292.56808	672.40271	392.76956	-279.45218	612.86444	381.71106	0.00000	0.00000	0.00000	-222.75049	504.90024	250.85916	-52.83223	403.80807	373.71918	-32.83898	364.58148	369.36505	-105.17211	368.65717	386.27753	-77.13049	335.52084	379.21170	69.76676	154.15179	346.10870	36.99859	154.75787	262.71481	134.44853	154.29410	290.12674	-20.64409	34.36568	373.87534	-64.28448	50.86476	312.60040	-53.01299	44.59237	265.02185	-215.65355	1030.92175	184.35355	-410.42264	996.23993	135.44873	-415.43243	657.37689	78.47189	-445.98007	604.98505	95.66949	-482.77661	691.01953	89.28110	-504.34875	634.74078	103.50254	0.00000	0.00000	0.00000	-515.99432	541.35986	122.16167	-470.80447	370.48486	93.58279	-484.27628	324.38147	98.83205	-530.87006	379.81088	105.26386	-534.78943	333.36072	109.95324	-537.80396	97.67215	143.13821	-558.51984	112.36726	228.94763	-478.96143	68.69340	193.58022	-694.20294	54.37192	221.14688	-712.58154	82.04915	173.11624	-667.40344	42.51267	112.24092
